<svg xmlns="http://www.w3.org/2000/svg" width="702.992" height="517.339" viewBox="0 0 702.992 517.339">
  <g id="Group_239" data-name="Group 239" transform="translate(-1021.625 -129)">
    <g id="Group_237" data-name="Group 237" transform="translate(-73 -196)">
      <g id="lemon-final" transform="translate(1313.689 473.219)">
        <g id="Group_204" data-name="Group 204" transform="translate(7.977 8)">
          <path id="Path_138" data-name="Path 138" d="M254.071,126.38C267.118,61.136,223.161,8.138,155.787,8,88.48,7.862,23.314,60.652,10.267,125.9s30.977,118.242,98.284,118.38S241.025,191.555,254.071,126.38Z" transform="translate(-7.977 -8)" fill="none" stroke="#383737" stroke-miterlimit="10" stroke-width="16"/>
          <g id="Group_203" data-name="Group 203" transform="translate(20.545 18.819)">
            <path id="Path_139" data-name="Path 139" d="M191.521,118.017c-4.148,6.5-8.832,6.5-10.437,0L166.833,60.522c-1.606-6.434,2.676-14.945,9.5-18.819a58.115,58.115,0,0,1,26.227-6.5c14.385,0,23.551,6.711,23.551,6.711,5.286,3.875,6.289,12.315,2.141,18.819Z" transform="translate(-80.983 -35.199)" fill="none" stroke="#383737" stroke-miterlimit="10" stroke-width="16"/>
            <path id="Path_140" data-name="Path 140" d="M169.9,196.524c-1.539-6.5-6.222-6.5-10.437-.069L122.192,253.88c-4.215,6.434-3.278,14.944,2.007,18.819,0,0,8.9,6.573,23.551,6.642a59.662,59.662,0,0,0,26.16-6.573c6.824-3.875,11.173-12.315,9.634-18.75Z" transform="translate(-65.446 -83.402)" fill="none" stroke="#383737" stroke-miterlimit="10" stroke-width="16"/>
            <path id="Path_141" data-name="Path 141" d="M210.884,168.437c-6.155-2.768-5.219-7.334,2.007-10.1l64.3-24.838c7.226-2.768,15.455-.277,18.332,5.6,0,0,4.817,9.963,1.94,24.146a58.5,58.5,0,0,1-11.642,24.077c-5.152,5.881-14.385,8.441-20.54,5.673Z" transform="translate(-94.324 -65.139)" fill="none" stroke="#383737" stroke-miterlimit="10" stroke-width="16"/>
            <path id="Path_142" data-name="Path 142" d="M124,168.225c7.226-2.768,8.162-7.334,2.074-10.1L71.746,133.078c-6.088-2.837-15.321-.346-20.54,5.535a57.145,57.145,0,0,0-11.642,24.146c-2.81,13.907,2.007,24.077,2.007,24.077,2.81,5.881,11.039,8.51,18.265,5.743Z" transform="translate(-38.685 -64.997)" fill="none" stroke="#383737" stroke-miterlimit="10" stroke-width="16"/>
            <path id="Path_143" data-name="Path 143" d="M149.279,125.754c1.405,6.573-2.542,9.755-8.765,7.2L84.983,109.84c-6.222-2.629-9.032-10.378-6.222-17.3A60.219,60.219,0,0,1,95.888,70.888a63.1,63.1,0,0,1,24.889-12.315c7.427-1.453,14.585,2.768,15.99,9.271Z" transform="translate(-51.586 -42.313)" fill="none" stroke="#383737" stroke-miterlimit="10" stroke-width="16"/>
            <path id="Path_144" data-name="Path 144" d="M206.9,186.389c-6.222-2.629-10.17.554-8.832,7.126l12.043,58.325c1.338,6.573,8.5,10.793,15.924,9.41a63.02,63.02,0,0,0,41.95-34.109c2.877-6.919.134-14.668-6.088-17.366Z" transform="translate(-91.346 -81.5)" fill="none" stroke="#383737" stroke-miterlimit="10" stroke-width="16"/>
            <path id="Path_145" data-name="Path 145" d="M211.631,133.435c-7.293,2.629-9.969-.623-5.955-7.126L241.07,68.122c3.947-6.573,12.846-10.724,19.67-9.34a39.133,39.133,0,0,1,19.938,12.454,38.66,38.66,0,0,1,8.363,21.725c.134,6.919-5.754,14.668-13.047,17.3Z" transform="translate(-93.332 -42.384)" fill="none" stroke="#383737" stroke-miterlimit="10" stroke-width="16"/>
            <path id="Path_146" data-name="Path 146" d="M134.7,194.106c4.014-6.5,1.338-9.755-5.888-7.2l-64.7,22.9c-7.293,2.56-13.18,10.309-13.114,17.228a37.972,37.972,0,0,0,8.5,21.725,39.091,39.091,0,0,0,19.938,12.385c6.824,1.453,15.723-2.7,19.737-9.2Z" transform="translate(-42.76 -81.675)" fill="none" stroke="#383737" stroke-miterlimit="10" stroke-width="16"/>
          </g>
        </g>
        <g id="Group_205" data-name="Group 205" transform="translate(20.236 64.595)">
          <path id="Path_147" data-name="Path 147" d="M26.3,221.81c23.149,38.053,64.163,63.376,110.863,63.376,72.325,0,130.934-60.608,130.934-135.4A139.193,139.193,0,0,0,254.582,89.8" transform="translate(-26.3 -89.8)" fill="none" stroke="#383737" stroke-miterlimit="10" stroke-width="16"/>
        </g>
      </g>
      <text id="_4" data-name="4" transform="translate(1094.625 734.339)" fill="#383737" font-size="349" font-family="AbrilFatface-Regular, Abril Fatface"><tspan x="0" y="0">4</tspan></text>
      <text id="_4-2" data-name="4" transform="translate(1586.617 734.339)" fill="#383737" font-size="349" font-family="AbrilFatface-Regular, Abril Fatface"><tspan x="0" y="0">4</tspan></text>
    </g>
    <text id="Erro" transform="translate(1109 257)" fill="#383737" font-size="120" font-family="OpenSans-Bold, Open Sans" font-weight="700"><tspan x="0" y="0">Erro</tspan></text>
  </g>
</svg>
